# xmcd
#
# Track frame offsets:
#	150
#	24983
#	51420
#	66131
#	72711
#	88708
#	126422
#	140954
#	164953
#
# Disc length: 2418 seconds
#
# Revision: 2
# Processed by: cddbd v1.5.2PL0 Copyright (c) Steve Scherf et al.
# Submitted via: EZCDAudioConverter 1.3.4.1
#
DISCID=95097009
DTITLE=Livin' Blues - blue breeze
DYEAR=1997
DGENRE=Blues
TTITLE0=Shylina
TTITLE1=Back Stage
TTITLE2=Midnight Blues
TTITLE3=Pisces
TTITLE4=Bus 29
TTITLE5=Blue Breeze
TTITLE6=Pick Up My Mojo
TTITLE7=That Night
TTITLE8=Black Jack Dilly
EXTD=
EXTT0=
EXTT1=
EXTT2=
EXTT3=
EXTT4=
EXTT5=
EXTT6=
EXTT7=
EXTT8=
PLAYORDER=
